<svg xmlns="http://www.w3.org/2000/svg" xmlns:xlink="http://www.w3.org/1999/xlink" width="500" zoomAndPan="magnify" viewBox="0 0 375 374.999991" height="500" preserveAspectRatio="xMidYMid meet" version="1.2"><defs/><g id="196dc1240d"><g style="fill:#ff5757;fill-opacity:1;"><g transform="translate(66.152587, 212.014873)"><path style="stroke:none" d="M 1.453125 -0.1875 L -8.09375 -76.640625 L 11.75 -79.109375 L 15.375 -47.078125 L 16.71875 -47.25 L 15.03125 -79.515625 L 35.875 -82.125 L 35.203125 -43.21875 L 45.640625 -5.703125 L 24.6875 -3.078125 L 18.359375 -34.140625 L 17.046875 -34.03125 L 21.296875 -2.65625 Z M 1.453125 -0.1875 "/></g></g><g style="fill:#000000;fill-opacity:1;"><g transform="translate(60.428546, 207.561031)"><path style="stroke:none" d="M -0.695312 0.0859375 L -10.507812 -78.535156 L 13.683594 -81.554688 L 17.527344 -47.324219 L 15.363281 -47.082031 L 15.09375 -49.242188 L 16.445312 -49.410156 L 16.714844 -47.25 L 14.542969 -47.136719 L 12.75 -81.4375 L 38.105469 -84.601562 L 37.378906 -43.183594 L 35.203125 -43.222656 L 37.300781 -43.804688 L 48.425781 -3.851562 L 22.953125 -0.671875 L 16.21875 -33.71875 L 18.347656 -34.152344 L 18.523438 -31.984375 L 17.222656 -31.878906 L 17.050781 -34.046875 L 19.207031 -34.339844 L 23.761719 -0.773438 L -0.429688 2.246094 Z M 3.621094 -0.453125 L 1.460938 -0.183594 L 1.191406 -2.339844 L 21.039062 -4.820312 L 21.308594 -2.660156 L 19.152344 -2.367188 L 14.585938 -36.03125 L 20.097656 -36.476562 L 26.8125 -3.515625 L 24.683594 -3.082031 L 24.414062 -5.238281 L 45.382812 -7.855469 L 45.652344 -5.699219 L 43.558594 -5.113281 L 33.023438 -42.941406 L 33.710938 -82.171875 L 35.886719 -82.132812 L 36.15625 -79.972656 L 15.296875 -77.371094 L 15.027344 -79.53125 L 17.199219 -79.644531 L 18.992188 -45.34375 L 13.449219 -44.652344 L 9.605469 -78.878906 L 11.765625 -79.125 L 12.035156 -76.964844 L -7.8125 -74.488281 L -8.082031 -76.644531 L -5.921875 -76.914062 Z M 3.621094 -0.453125 "/></g></g><g style="fill:#ff5757;fill-opacity:1;"><g transform="translate(161.989754, 211.861707)"><path style="stroke:none" d="M 21.734375 3.546875 C 17.671875 3.140625 14.34375 2.40625 11.75 1.34375 C 9.164062 0.289062 7.1875 -0.984375 5.8125 -2.484375 C 4.445312 -3.984375 3.535156 -5.628906 3.078125 -7.421875 C 2.617188 -9.222656 2.484375 -11.082031 2.671875 -13 L 3.90625 -25.40625 L 21.765625 -23.625 L 20.515625 -11.046875 C 20.472656 -10.628906 20.554688 -10.238281 20.765625 -9.875 C 20.984375 -9.507812 21.390625 -9.300781 21.984375 -9.25 C 22.503906 -9.195312 22.914062 -9.316406 23.21875 -9.609375 C 23.519531 -9.898438 23.691406 -10.273438 23.734375 -10.734375 C 23.878906 -12.191406 23.972656 -13.628906 24.015625 -15.046875 C 24.066406 -16.460938 24 -17.75 23.8125 -18.90625 C 23.488281 -21.34375 22.925781 -23.507812 22.125 -25.40625 C 21.320312 -27.300781 20.363281 -29.066406 19.25 -30.703125 C 18.144531 -32.335938 16.984375 -33.90625 15.765625 -35.40625 C 14.554688 -36.90625 13.398438 -38.476562 12.296875 -40.125 C 11.191406 -41.78125 10.222656 -43.585938 9.390625 -45.546875 C 8.554688 -47.503906 7.960938 -49.734375 7.609375 -52.234375 C 7.253906 -54.742188 7.238281 -57.640625 7.5625 -60.921875 L 7.796875 -63.171875 C 8.472656 -68.441406 10.546875 -72.035156 14.015625 -73.953125 C 17.492188 -75.867188 22.1875 -76.53125 28.09375 -75.9375 C 32.632812 -75.488281 36.289062 -74.515625 39.0625 -73.015625 C 41.84375 -71.523438 43.816406 -69.617188 44.984375 -67.296875 C 46.160156 -64.972656 46.601562 -62.367188 46.3125 -59.484375 L 45.390625 -50.234375 L 28.203125 -51.953125 L 29.140625 -61.421875 C 29.191406 -61.867188 29.085938 -62.257812 28.828125 -62.59375 C 28.578125 -62.925781 28.1875 -63.117188 27.65625 -63.171875 C 27.164062 -63.210938 26.757812 -63.097656 26.4375 -62.828125 C 26.113281 -62.554688 25.925781 -62.179688 25.875 -61.703125 C 25.769531 -60.679688 25.757812 -59.65625 25.84375 -58.625 C 25.9375 -57.59375 26.066406 -56.648438 26.234375 -55.796875 C 26.640625 -54.046875 27.257812 -52.4375 28.09375 -50.96875 C 28.925781 -49.5 29.910156 -48.0625 31.046875 -46.65625 C 32.179688 -45.257812 33.351562 -43.785156 34.5625 -42.234375 C 35.78125 -40.691406 36.929688 -38.972656 38.015625 -37.078125 C 39.097656 -35.191406 40.03125 -33.019531 40.8125 -30.5625 C 41.59375 -28.113281 42.125 -25.289062 42.40625 -22.09375 C 42.695312 -18.894531 42.632812 -15.210938 42.21875 -11.046875 L 41.921875 -8.109375 C 41.546875 -5.078125 40.4375 -2.632812 38.59375 -0.78125 C 36.757812 1.0625 34.398438 2.332031 31.515625 3.03125 C 28.640625 3.738281 25.378906 3.910156 21.734375 3.546875 Z M 21.734375 3.546875 "/></g></g><g style="fill:#000000;fill-opacity:1;"><g transform="translate(157.396694, 206.248755)"><path style="stroke:none" d="M 21.523438 5.703125 C 17.253906 5.277344 13.726562 4.496094 10.945312 3.363281 C 8.050781 2.179688 5.808594 0.71875 4.21875 -1.027344 C 2.609375 -2.796875 1.527344 -4.75 0.972656 -6.890625 C 0.441406 -8.933594 0.285156 -11.042969 0.5 -13.21875 L 1.957031 -27.785156 L 24.15625 -25.566406 L 22.683594 -10.828125 C 22.691406 -10.882812 22.679688 -10.929688 22.65625 -10.972656 C 22.550781 -11.15625 22.410156 -11.292969 22.242188 -11.378906 C 22.203125 -11.402344 22.171875 -11.414062 22.144531 -11.421875 C 22.15625 -11.417969 22.175781 -11.414062 22.207031 -11.414062 L 22.207031 -11.410156 C 22.171875 -11.40625 22.128906 -11.398438 22.082031 -11.386719 C 21.933594 -11.34375 21.804688 -11.265625 21.691406 -11.152344 C 21.617188 -11.078125 21.574219 -11.007812 21.570312 -10.941406 C 21.710938 -12.359375 21.804688 -13.753906 21.847656 -15.125 C 21.890625 -16.402344 21.828125 -17.550781 21.664062 -18.566406 L 21.660156 -18.597656 L 21.65625 -18.625 C 21.355469 -20.859375 20.84375 -22.839844 20.121094 -24.5625 C 19.378906 -26.332031 18.496094 -27.96875 17.46875 -29.476562 C 16.394531 -31.058594 15.265625 -32.578125 14.085938 -34.039062 C 12.832031 -35.597656 11.632812 -37.222656 10.488281 -38.925781 C 9.304688 -40.6875 8.269531 -42.617188 7.386719 -44.707031 C 6.484375 -46.839844 5.84375 -49.253906 5.457031 -51.941406 C 5.078125 -54.621094 5.058594 -57.679688 5.402344 -61.125 L 5.628906 -63.410156 L 5.632812 -63.441406 C 6.410156 -69.457031 8.855469 -73.597656 12.976562 -75.863281 C 16.84375 -77.992188 21.953125 -78.742188 28.304688 -78.105469 C 33.140625 -77.621094 37.070312 -76.566406 40.101562 -74.9375 C 43.277344 -73.230469 45.550781 -71.011719 46.929688 -68.289062 C 48.296875 -65.589844 48.8125 -62.585938 48.480469 -59.269531 L 47.339844 -47.859375 L 25.816406 -50.011719 L 26.976562 -61.644531 C 26.964844 -61.527344 27.007812 -61.402344 27.105469 -61.277344 C 27.1875 -61.171875 27.28125 -61.089844 27.394531 -61.035156 C 27.425781 -61.019531 27.453125 -61.011719 27.476562 -61.003906 C 27.472656 -61.003906 27.464844 -61.003906 27.449219 -61.007812 C 27.558594 -60.996094 27.679688 -61.046875 27.8125 -61.15625 C 27.949219 -61.265625 28.019531 -61.375 28.03125 -61.484375 C 27.945312 -60.601562 27.9375 -59.710938 28.011719 -58.808594 C 28.09375 -57.867188 28.210938 -57.011719 28.375 -56.246094 C 28.714844 -54.730469 29.253906 -53.332031 29.984375 -52.050781 C 30.769531 -50.683594 31.691406 -49.339844 32.75 -48.027344 C 33.886719 -46.617188 35.0625 -45.136719 36.28125 -43.582031 C 37.558594 -41.953125 38.765625 -40.148438 39.902344 -38.164062 C 41.058594 -36.140625 42.050781 -33.828125 42.878906 -31.230469 C 43.707031 -28.628906 44.273438 -25.648438 44.574219 -22.292969 C 44.875 -18.957031 44.808594 -15.132812 44.378906 -10.824219 L 44.082031 -7.867188 L 44.078125 -7.839844 C 43.640625 -4.3125 42.328125 -1.449219 40.140625 0.75 C 38.015625 2.886719 35.316406 4.355469 32.039062 5.152344 C 28.921875 5.910156 25.414062 6.09375 21.523438 5.703125 Z M 21.957031 1.375 C 25.355469 1.714844 28.375 1.5625 31.011719 0.921875 C 33.492188 0.320312 35.507812 -0.761719 37.054688 -2.316406 C 38.542969 -3.8125 39.445312 -5.835938 39.761719 -8.378906 L 41.921875 -8.109375 L 39.757812 -8.324219 L 40.050781 -11.257812 C 40.453125 -15.292969 40.515625 -18.839844 40.242188 -21.902344 C 39.96875 -24.941406 39.464844 -27.609375 38.734375 -29.910156 C 38 -32.214844 37.128906 -34.246094 36.125 -36.003906 C 35.09375 -37.804688 34.003906 -39.433594 32.859375 -40.894531 C 31.652344 -42.433594 30.484375 -43.902344 29.359375 -45.296875 C 28.15625 -46.789062 27.105469 -48.320312 26.207031 -49.890625 C 25.261719 -51.550781 24.5625 -53.367188 24.117188 -55.347656 C 23.917969 -56.289062 23.769531 -57.324219 23.675781 -58.445312 C 23.578125 -59.613281 23.585938 -60.769531 23.703125 -61.917969 C 23.808594 -63.003906 24.261719 -63.871094 25.058594 -64.523438 C 25.855469 -65.175781 26.796875 -65.445312 27.882812 -65.335938 C 29.03125 -65.222656 29.925781 -64.75 30.558594 -63.921875 C 31.160156 -63.136719 31.410156 -62.234375 31.308594 -61.214844 L 30.359375 -51.742188 L 28.195312 -51.957031 L 28.414062 -54.125 L 45.605469 -52.40625 L 45.390625 -50.242188 L 43.226562 -50.457031 L 44.148438 -59.703125 C 44.398438 -62.175781 44.03125 -64.382812 43.046875 -66.324219 C 42.082031 -68.234375 40.410156 -69.828125 38.039062 -71.105469 C 35.519531 -72.460938 32.128906 -73.351562 27.871094 -73.777344 C 22.417969 -74.320312 18.152344 -73.746094 15.074219 -72.050781 C 12.242188 -70.496094 10.535156 -67.441406 9.949219 -62.886719 L 7.792969 -63.164062 L 9.957031 -62.949219 L 9.730469 -60.695312 C 9.421875 -57.597656 9.433594 -54.886719 9.765625 -52.558594 C 10.097656 -50.242188 10.640625 -48.1875 11.394531 -46.398438 C 12.171875 -44.566406 13.074219 -42.882812 14.101562 -41.351562 C 15.171875 -39.757812 16.296875 -38.230469 17.472656 -36.773438 C 18.726562 -35.21875 19.925781 -33.601562 21.066406 -31.925781 C 22.257812 -30.175781 23.28125 -28.28125 24.132812 -26.246094 C 25.003906 -24.167969 25.617188 -21.820312 25.96875 -19.207031 L 23.8125 -18.914062 L 25.960938 -19.265625 C 26.171875 -17.96875 26.25 -16.539062 26.199219 -14.980469 C 26.148438 -13.511719 26.050781 -12.023438 25.898438 -10.507812 C 25.800781 -9.539062 25.421875 -8.726562 24.757812 -8.066406 C 23.976562 -7.289062 22.984375 -6.960938 21.777344 -7.082031 C 20.4375 -7.214844 19.476562 -7.785156 18.890625 -8.789062 C 18.445312 -9.558594 18.265625 -10.382812 18.355469 -11.261719 L 19.613281 -23.832031 L 21.777344 -23.617188 L 21.558594 -21.453125 L 3.6875 -23.238281 L 3.90625 -25.402344 L 6.070312 -25.1875 L 4.832031 -12.785156 C 4.664062 -11.125 4.78125 -9.527344 5.183594 -7.984375 C 5.558594 -6.539062 6.3125 -5.195312 7.4375 -3.957031 C 8.585938 -2.695312 10.300781 -1.601562 12.585938 -0.667969 C 14.984375 0.308594 18.105469 0.988281 21.957031 1.375 Z M 21.957031 1.375 "/></g></g><g style="fill:#ff5757;fill-opacity:1;"><g transform="translate(108.675152, 175.2949)"><path style="stroke:none" d="M 0.9375 0 L 0.9375 -49 L 13.65625 -49 L 13.65625 0 Z M 0.9375 0 "/></g></g><g style="fill:#000000;fill-opacity:1;"><g transform="translate(105.413656, 172.033404)"><path style="stroke:none" d="M -0.445312 -50.390625 L 15.039062 -50.390625 L 15.039062 1.382812 L -0.445312 1.382812 Z M 2.320312 -47.621094 L 2.320312 -1.382812 L 12.273438 -1.382812 L 12.273438 -47.621094 Z M 2.320312 -47.621094 "/></g></g><g style="fill:#ff5757;fill-opacity:1;"><g transform="translate(209.526948, 197.892084)"><path style="stroke:none" d="M 7.78125 0 L 7.78125 -15.3125 L 0 -49 L 12.859375 -49 L 13.875 -26.015625 L 14.375 -26.015625 L 15.171875 -49 L 28.21875 -49 L 20.5 -15.34375 L 20.5 0 Z M 7.78125 0 "/></g></g><g style="fill:#000000;fill-opacity:1;"><g transform="translate(206.265445, 194.630581)"><path style="stroke:none" d="M 6.398438 0 L 6.398438 -15.3125 L 7.785156 -15.3125 L 6.433594 -15.003906 L -1.738281 -50.390625 L 14.1875 -50.390625 L 15.253906 -26.078125 L 13.871094 -26.015625 L 13.871094 -27.398438 L 14.378906 -27.398438 L 14.378906 -26.015625 L 12.996094 -26.0625 L 13.832031 -50.390625 L 29.949219 -50.390625 L 21.851562 -15.042969 L 20.503906 -15.351562 L 21.886719 -15.351562 L 21.886719 1.382812 L 6.398438 1.382812 Z M 9.167969 0 L 7.785156 0 L 7.785156 -1.382812 L 20.503906 -1.382812 L 20.503906 0 L 19.121094 0 L 19.121094 -15.507812 L 26.867188 -49.316406 L 28.214844 -49.003906 L 28.214844 -47.621094 L 15.171875 -47.621094 L 15.171875 -49.003906 L 16.554688 -48.957031 L 15.714844 -24.632812 L 12.546875 -24.632812 L 11.480469 -48.945312 L 12.863281 -49.003906 L 12.863281 -47.621094 L 0 -47.621094 L 0 -49.003906 L 1.347656 -49.316406 L 9.167969 -15.472656 Z M 9.167969 0 "/></g></g><g style="fill:#ff5757;fill-opacity:1;"><g transform="translate(126.974045, 194.068822)"><path style="stroke:none" d="M 1.15625 0.09375 L 6.328125 -60.171875 L 22.671875 -58.765625 L 23.109375 -50.703125 L 23.71875 -23.1875 L 24.5 -23.15625 L 25.421875 -58.53125 L 38.890625 -57.375 L 33.71875 2.890625 L 17.375 1.484375 L 16.9375 -6.40625 L 16.0625 -36.796875 L 15.296875 -36.90625 L 14.5 1.25 Z M 1.15625 0.09375 "/></g></g><g style="fill:#000000;fill-opacity:1;"><g transform="translate(123.30684, 189.713664)"><path style="stroke:none" d="M -0.550781 -0.046875 L 4.765625 -62.019531 L 24.300781 -60.34375 L 24.804688 -50.761719 L 25.4375 -23.226562 L 23.730469 -23.1875 L 23.773438 -24.894531 L 24.53125 -24.875 L 24.488281 -23.167969 L 22.777344 -23.210938 L 23.761719 -60.390625 L 40.742188 -58.933594 L 35.28125 4.738281 L 15.75 3.066406 L 15.226562 -6.332031 L 14.347656 -36.742188 L 16.058594 -36.792969 L 15.8125 -35.101562 L 15.0625 -35.210938 L 15.308594 -36.902344 L 17.015625 -36.863281 L 16.160156 3.101562 L -0.695312 1.65625 Z M 2.855469 0.246094 L 1.152344 0.0976562 L 1.296875 -1.601562 L 14.636719 -0.460938 L 14.492188 1.242188 L 12.785156 1.207031 L 13.640625 -38.871094 L 17.722656 -38.277344 L 18.640625 -6.453125 L 16.933594 -6.40625 L 18.636719 -6.5 L 19.078125 1.394531 L 17.371094 1.488281 L 17.519531 -0.210938 L 33.871094 1.191406 L 33.726562 2.890625 L 32.023438 2.746094 L 37.191406 -57.523438 L 38.894531 -57.378906 L 38.746094 -55.675781 L 25.273438 -56.832031 L 25.421875 -58.535156 L 27.128906 -58.488281 L 26.148438 -21.414062 L 22.058594 -21.523438 L 21.390625 -50.65625 L 23.097656 -50.699219 L 21.390625 -50.609375 L 20.96875 -58.679688 L 22.671875 -58.769531 L 22.527344 -57.066406 L 6.175781 -58.46875 L 6.320312 -60.171875 L 8.023438 -60.027344 Z M 2.855469 0.246094 "/></g></g><g style="fill:#ff5757;fill-opacity:1;"><g transform="translate(246.002768, 208.094973)"><path style="stroke:none" d="M 1.015625 -0.125 L -5.625 -53.328125 L 8.796875 -55.125 L 10.65625 -48.203125 L 16.296875 -24.46875 L 16.9375 -24.59375 L 11.234375 -55.4375 L 23.125 -56.921875 L 29.765625 -3.71875 L 15.328125 -1.90625 L 13.5 -8.6875 L 7.125 -34.84375 L 6.46875 -34.796875 L 12.796875 -1.59375 Z M 1.015625 -0.125 "/></g></g><g style="fill:#000000;fill-opacity:1;"><g transform="translate(242.02119, 204.996931)"><path style="stroke:none" d="M -0.484375 0.0585938 L -7.308594 -54.628906 L 9.929688 -56.78125 L 12.132812 -48.570312 L 17.761719 -24.820312 L 16.289062 -24.472656 L 16.011719 -25.960938 L 16.671875 -26.082031 L 16.949219 -24.59375 L 15.460938 -24.320312 L 9.453125 -56.722656 L 24.4375 -58.589844 L 31.449219 -2.398438 L 14.214844 -0.25 L 12.027344 -8.296875 L 5.660156 -34.492188 L 7.128906 -34.847656 L 7.226562 -33.339844 L 6.558594 -33.292969 L 6.460938 -34.804688 L 7.945312 -35.085938 L 14.578125 -0.292969 L -0.296875 1.5625 Z M 2.519531 -0.3125 L 1.015625 -0.125 L 0.828125 -1.628906 L 12.601562 -3.097656 L 12.789062 -1.597656 L 11.300781 -1.3125 L 4.652344 -36.203125 L 8.300781 -36.441406 L 14.964844 -9.03125 L 13.492188 -8.675781 L 14.953125 -9.070312 L 16.789062 -2.308594 L 15.332031 -1.914062 L 15.144531 -3.414062 L 29.574219 -5.214844 L 29.761719 -3.714844 L 28.257812 -3.527344 L 21.621094 -56.714844 L 23.125 -56.902344 L 23.3125 -55.398438 L 11.421875 -53.914062 L 11.234375 -55.417969 L 12.722656 -55.695312 L 18.710938 -23.382812 L 15.148438 -22.722656 L 9.195312 -47.847656 L 10.667969 -48.199219 L 9.203125 -47.804688 L 7.347656 -54.722656 L 8.808594 -55.113281 L 8.996094 -53.613281 L -5.433594 -51.8125 L -5.621094 -53.3125 L -4.117188 -53.5 Z M 2.519531 -0.3125 "/></g></g><g style="fill:#ff5757;fill-opacity:1;"><g transform="translate(282.344365, 203.289946)"><path style="stroke:none" d="M 14.84375 0.828125 C 10.1875 0.828125 6.664062 -0.269531 4.28125 -2.46875 C 1.90625 -4.664062 0.71875 -7.914062 0.71875 -12.21875 L 0.71875 -36.859375 C 0.71875 -41.140625 1.90625 -44.367188 4.28125 -46.546875 C 6.664062 -48.734375 10.1875 -49.828125 14.84375 -49.828125 C 19.382812 -49.828125 22.847656 -48.773438 25.234375 -46.671875 C 27.628906 -44.578125 28.875 -41.453125 28.96875 -37.296875 L 28.96875 -25.625 L 15.859375 -25.625 L 15.859375 -38.453125 C 15.859375 -39.148438 15.507812 -39.5 14.8125 -39.5 C 14.113281 -39.5 13.765625 -39.148438 13.765625 -38.453125 L 13.765625 -10.625 C 13.765625 -9.925781 14.113281 -9.578125 14.8125 -9.578125 C 15.507812 -9.578125 15.859375 -9.925781 15.859375 -10.625 L 15.859375 -23.390625 L 28.96875 -23.390625 L 28.96875 -11.703125 C 28.851562 -7.578125 27.597656 -4.457031 25.203125 -2.34375 C 22.816406 -0.226562 19.363281 0.828125 14.84375 0.828125 Z M 14.84375 0.828125 "/></g></g><g style="fill:#000000;fill-opacity:1;"><g transform="translate(279.082861, 200.028456)"><path style="stroke:none" d="M 14.847656 2.210938 C 9.824219 2.210938 5.992188 0.992188 3.347656 -1.453125 C 0.675781 -3.925781 -0.664062 -7.511719 -0.664062 -12.214844 L -0.664062 -36.863281 C -0.664062 -41.542969 0.675781 -45.113281 3.351562 -47.574219 C 5.996094 -50.003906 9.824219 -51.21875 14.847656 -51.21875 C 19.734375 -51.21875 23.503906 -50.050781 26.15625 -47.71875 C 28.847656 -45.351562 30.25 -41.886719 30.355469 -37.328125 L 30.355469 -24.234375 L 14.472656 -24.234375 L 14.472656 -38.449219 C 14.472656 -38.46875 14.46875 -38.484375 14.46875 -38.496094 C 14.46875 -38.492188 14.472656 -38.480469 14.476562 -38.46875 C 14.503906 -38.390625 14.546875 -38.320312 14.613281 -38.253906 C 14.683594 -38.1875 14.753906 -38.140625 14.828125 -38.113281 C 14.84375 -38.109375 14.851562 -38.105469 14.859375 -38.105469 C 14.847656 -38.109375 14.832031 -38.109375 14.808594 -38.109375 C 14.789062 -38.109375 14.773438 -38.109375 14.761719 -38.105469 C 14.765625 -38.105469 14.777344 -38.109375 14.789062 -38.113281 C 14.867188 -38.140625 14.9375 -38.1875 15.003906 -38.253906 C 15.070312 -38.320312 15.117188 -38.390625 15.144531 -38.46875 C 15.148438 -38.480469 15.148438 -38.492188 15.152344 -38.496094 C 15.148438 -38.484375 15.148438 -38.46875 15.148438 -38.449219 L 15.148438 -10.628906 C 15.148438 -10.609375 15.148438 -10.59375 15.152344 -10.582031 C 15.148438 -10.585938 15.148438 -10.597656 15.144531 -10.609375 C 15.117188 -10.6875 15.070312 -10.757812 15.003906 -10.824219 C 14.9375 -10.890625 14.867188 -10.9375 14.789062 -10.964844 C 14.777344 -10.96875 14.765625 -10.96875 14.761719 -10.972656 C 14.773438 -10.96875 14.789062 -10.96875 14.808594 -10.96875 C 14.832031 -10.96875 14.847656 -10.96875 14.859375 -10.972656 C 14.851562 -10.96875 14.84375 -10.96875 14.828125 -10.964844 C 14.753906 -10.9375 14.683594 -10.890625 14.613281 -10.824219 C 14.546875 -10.757812 14.503906 -10.6875 14.476562 -10.609375 C 14.472656 -10.597656 14.46875 -10.585938 14.46875 -10.582031 C 14.46875 -10.59375 14.472656 -10.609375 14.472656 -10.628906 L 14.472656 -24.769531 L 30.355469 -24.769531 L 30.355469 -11.671875 C 30.222656 -7.140625 28.8125 -3.683594 26.121094 -1.304688 C 23.46875 1.039062 19.710938 2.210938 14.847656 2.210938 Z M 14.847656 -0.554688 C 19.011719 -0.554688 22.160156 -1.496094 24.289062 -3.378906 C 26.378906 -5.226562 27.480469 -8.019531 27.585938 -11.75 L 28.972656 -11.710938 L 27.585938 -11.710938 L 27.585938 -23.386719 L 28.972656 -23.386719 L 28.972656 -22.003906 L 15.855469 -22.003906 L 15.855469 -23.386719 L 17.238281 -23.386719 L 17.238281 -10.628906 C 17.238281 -9.898438 17.015625 -9.3125 16.570312 -8.867188 C 16.128906 -8.421875 15.539062 -8.199219 14.808594 -8.199219 C 14.078125 -8.199219 13.492188 -8.421875 13.046875 -8.867188 C 12.601562 -9.3125 12.382812 -9.898438 12.382812 -10.628906 L 12.382812 -38.449219 C 12.382812 -39.179688 12.601562 -39.765625 13.046875 -40.210938 C 13.492188 -40.652344 14.078125 -40.875 14.808594 -40.875 C 15.539062 -40.875 16.128906 -40.652344 16.570312 -40.210938 C 17.015625 -39.765625 17.238281 -39.179688 17.238281 -38.449219 L 17.238281 -25.621094 L 15.855469 -25.621094 L 15.855469 -27.003906 L 28.972656 -27.003906 L 28.972656 -25.621094 L 27.585938 -25.621094 L 27.585938 -37.292969 L 28.972656 -37.292969 L 27.585938 -37.261719 C 27.5 -41.015625 26.414062 -43.808594 24.328125 -45.640625 C 22.199219 -47.515625 19.039062 -48.449219 14.847656 -48.449219 C 10.546875 -48.449219 7.335938 -47.480469 5.222656 -45.535156 C 3.144531 -43.625 2.105469 -40.734375 2.105469 -36.863281 L 2.105469 -12.214844 C 2.105469 -8.320312 3.144531 -5.410156 5.226562 -3.484375 C 7.339844 -1.53125 10.546875 -0.554688 14.847656 -0.554688 Z M 14.847656 -0.554688 "/></g></g></g></svg>